<?xml version="1.0" encoding="UTF-8" standalone="no"?>
<!-- Generated by graphviz version 2.40.1 (20161225.0304)
 -->

<!-- Title: %3 Pages: 1 -->

<svg
   xmlns:dc="http://purl.org/dc/elements/1.1/"
   xmlns:cc="http://creativecommons.org/ns#"
   xmlns:rdf="http://www.w3.org/1999/02/22-rdf-syntax-ns#"
   xmlns:svg="http://www.w3.org/2000/svg"
   xmlns="http://www.w3.org/2000/svg"
   xmlns:sodipodi="http://sodipodi.sourceforge.net/DTD/sodipodi-0.dtd"
   xmlns:inkscape="http://www.inkscape.org/namespaces/inkscape"
   width="106.93911pt"
   height="58.289917pt"
   viewBox="0 0 106.93911 58.289917"
   version="1.1"
   id="svg941"
   sodipodi:docname="xor_evolution_illustration.svg"
   inkscape:version="0.92.3 (2405546, 2018-03-11)">
  <metadata
     id="metadata947">
    <rdf:RDF>
      <cc:Work
         rdf:about="">
        <dc:format>image/svg+xml</dc:format>
        <dc:type
           rdf:resource="http://purl.org/dc/dcmitype/StillImage" />
        <dc:title></dc:title>
      </cc:Work>
    </rdf:RDF>
  </metadata>
  <defs
     id="defs945">
    <marker
       inkscape:stockid="TriangleOutM"
       orient="auto"
       refY="0"
       refX="0"
       id="TriangleOutM"
       style="overflow:visible"
       inkscape:isstock="true">
      <path
         id="path2040"
         d="M 5.77,0 -2.88,5 V -5 Z"
         style="fill:#000000;fill-opacity:1;fill-rule:evenodd;stroke:#000000;stroke-width:1.00000003pt;stroke-opacity:1"
         transform="scale(0.4)"
         inkscape:connector-curvature="0" />
    </marker>
    <marker
       inkscape:stockid="Arrow2Lend"
       orient="auto"
       refY="0"
       refX="0"
       id="Arrow2Lend"
       style="overflow:visible"
       inkscape:isstock="true">
      <path
         id="path1916"
         style="fill:#000000;fill-opacity:1;fill-rule:evenodd;stroke:#000000;stroke-width:0.625;stroke-linejoin:round;stroke-opacity:1"
         d="M 8.7185878,4.0337352 -2.2072895,0.01601326 8.7185884,-4.0017078 c -1.7454984,2.3720609 -1.7354408,5.6174519 -6e-7,8.035443 z"
         transform="matrix(-1.1,0,0,-1.1,-1.1,0)"
         inkscape:connector-curvature="0" />
    </marker>
  </defs>
  <sodipodi:namedview
     pagecolor="#ffffff"
     bordercolor="#666666"
     borderopacity="1"
     objecttolerance="10"
     gridtolerance="10"
     guidetolerance="10"
     inkscape:pageopacity="0"
     inkscape:pageshadow="2"
     inkscape:window-width="1916"
     inkscape:window-height="1041"
     id="namedview943"
     showgrid="false"
     inkscape:zoom="3.9363293"
     inkscape:cx="103.12234"
     inkscape:cy="53.760894"
     inkscape:window-x="1920"
     inkscape:window-y="18"
     inkscape:window-maximized="0"
     inkscape:current-layer="svg941" />
  <g
     id="graph0"
     class="graph"
     transform="matrix(0.31005275,0,0,0.31005275,1.240211,48.462501)">
    <title
       id="title901">%3</title>
    <path
       style="fill:#ffffff"
       d="M -4,-112 H 130 V 4 H -4 Z"
       id="polygon903" />
    <!-- 1 -->
    <g
       id="node1"
       class="node">
      <title
         id="title905">1</title>
      <path
         style="fill:none;stroke:#000000"
         d="M 54,-18 A 27,18 0 0 1 27,0 27,18 0 0 1 0,-18 27,18 0 0 1 27,-36 27,18 0 0 1 54,-18 Z"
         id="ellipse907" />
      <g
         aria-label="A"
         style="font-size:14px;font-family:Times, serif;text-anchor:middle;fill:#000000"
         id="text909">
        <path
           d="m 31.825406,-14.3 v -0.266 c -0.63,-0.042 -0.77,-0.182 -1.26,-1.218 l -3.486,-7.952 h -0.28 l -2.912,6.874 c -0.896,2.044 -1.064,2.254 -1.736,2.296 v 0.266 h 2.772 v -0.266 c -0.672,0 -0.952,-0.182 -0.952,-0.574 0,-0.168 0.042,-0.364 0.112,-0.546 l 0.644,-1.638 h 3.668 l 0.574,1.344 c 0.168,0.392 0.266,0.742 0.266,0.952 0,0.126 -0.084,0.28 -0.196,0.336 -0.168,0.098 -0.28,0.126 -0.784,0.126 v 0.266 z m -3.626,-3.598 h -3.234 l 1.61,-3.85 z"
           style="font-size:14px;font-family:Times, serif;text-anchor:middle;fill:#000000"
           id="path2189" />
      </g>
    </g>
    <!-- 3 -->
    <g
       id="node3"
       class="node">
      <title
         id="title912">3</title>
      <path
         style="fill:none;stroke:#000000"
         d="m 90,-90 a 27,18 0 0 1 -27,18 27,18 0 0 1 -27,-18 27,18 0 0 1 27,-18 27,18 0 0 1 27,18 z"
         id="ellipse914" />
      <g
         aria-label="out"
         style="font-size:14px;font-family:Times, serif;text-anchor:middle;fill:#000000"
         id="text916">
        <path
           d="m 60.638594,-89.576003 c 0,-1.834 -1.288,-3.164 -3.08,-3.164 -1.82,0 -3.094,1.344 -3.094,3.276 0,1.89 1.302,3.304 3.066,3.304 1.764,0 3.108,-1.484 3.108,-3.416 z m -1.26,0.49 c 0,1.582 -0.63,2.534 -1.68,2.534 -0.546,0 -1.064,-0.336 -1.358,-0.896 -0.392,-0.728 -0.616,-1.708 -0.616,-2.702 0,-1.33 0.658,-2.198 1.652,-2.198 1.176,0 2.002,1.344 2.002,3.262 z"
           style="font-size:14px;font-family:Times, serif;text-anchor:middle;fill:#000000"
           id="path2193" />
        <path
           d="m 67.764594,-86.804003 v -0.196 h -0.07 c -0.644,0 -0.798,-0.154 -0.798,-0.798 v -4.802 h -2.212 v 0.238 c 0.868,0.042 1.036,0.182 1.036,0.882 v 3.29 c 0,0.378 -0.07,0.588 -0.238,0.714 -0.392,0.336 -0.826,0.504 -1.26,0.504 -0.546,0 -0.994,-0.476 -0.994,-1.064 v -4.564 h -2.044 v 0.196 c 0.672,0.042 0.868,0.252 0.868,0.896 v 3.528 c 0,1.106 0.672,1.82 1.694,1.82 0.518,0 1.064,-0.224 1.442,-0.602 l 0.602,-0.602 v 1.162 l 0.056,0.028 c 0.7,-0.28 1.204,-0.434 1.918,-0.63 z"
           style="font-size:14px;font-family:Times, serif;text-anchor:middle;fill:#000000"
           id="path2195" />
        <path
           d="m 71.964594,-87.224003 -0.182,-0.154 c -0.308,0.364 -0.532,0.49 -0.84,0.49 -0.518,0 -0.728,-0.364 -0.728,-1.26 v -4.004 h 1.414 v -0.448 h -1.414 v -1.624 c 0,-0.14 -0.028,-0.182 -0.098,-0.182 -0.084,0.14 -0.182,0.266 -0.28,0.392 -0.518,0.77 -0.994,1.288 -1.358,1.498 -0.154,0.098 -0.238,0.182 -0.238,0.266 0,0.042 0.014,0.07 0.056,0.098 h 0.742 v 4.214 c 0,1.176 0.42,1.778 1.232,1.778 0.7,0 1.232,-0.336 1.694,-1.064 z"
           style="font-size:14px;font-family:Times, serif;text-anchor:middle;fill:#000000"
           id="path2197" />
      </g>
    </g>
    <!-- 1&#45;&gt;3 -->
    <g
       id="edge1"
       class="edge">
      <title
         id="title919">1-&gt;3</title>
      <path
         d="m 35.7146,-35.4292 c 4.2451,-8.4901 9.439,-18.8779 14.1517,-28.3034"
         id="path921"
         inkscape:connector-curvature="0"
         style="fill:none;stroke:#000000" />
      <path
         style="fill:#000000;stroke:#000000"
         d="m 53.024,-62.2218 -6.261,-3.1305 7.6027,-7.379 z"
         id="polygon923" />
    </g>
    <!-- 2 -->
    <g
       id="node2"
       class="node">
      <title
         id="title926">2</title>
      <path
         style="fill:none;stroke:#000000"
         d="M 126,-18 A 27,18 0 0 1 99,0 27,18 0 0 1 72,-18 a 27,18 0 0 1 27,-18 27,18 0 0 1 27,18 z"
         id="ellipse928" />
      <g
         aria-label="B"
         style="font-size:14px;font-family:Times, serif;text-anchor:middle;fill:#000000"
         id="text930">
        <path
           d="m 102.62622,-16.82 c 0,-0.616 -0.252,-1.176 -0.686,-1.582 -0.42,-0.378 -0.798,-0.546 -1.708,-0.77 0.728,-0.182 1.022,-0.322 1.358,-0.616 0.35,-0.308 0.56,-0.826 0.56,-1.4 0,-1.568 -1.246,-2.38 -3.668001,-2.38 h -3.92 v 0.266 c 1.176,0.07 1.344,0.224 1.344,1.26 v 6.216 c 0,1.036 -0.182,1.218 -1.344,1.26 v 0.266 h 4.676 c 1.092001,0 2.086001,-0.294 2.604001,-0.77 0.504,-0.448 0.784,-1.078 0.784,-1.75 z m -1.61,0.014 c 0,0.756 -0.294,1.302 -0.854,1.624 -0.448001,0.252 -1.022001,0.364 -1.946001,0.364 -0.686,0 -0.882,-0.126 -0.882,-0.574 v -3.472 c 1.358,0 2.002,0.07 2.506,0.28 0.798001,0.336 1.176001,0.896 1.176001,1.778 z m -0.294,-4.326 c 0,1.092 -0.742001,1.708 -2.058001,1.708 h -1.33 v -3.206 c 0,-0.294 0.098,-0.42 0.308,-0.42 h 0.616 c 1.61,0 2.464001,0.672 2.464001,1.918 z"
           style="font-size:14px;font-family:Times, serif;text-anchor:middle;fill:#000000"
           id="path2202" />
      </g>
    </g>
    <!-- 2&#45;&gt;3 -->
    <g
       id="edge2"
       class="edge">
      <title
         id="title933">2-&gt;3</title>
      <path
         d="m 90.2854,-35.4292 c -4.2451,-8.4901 -9.439,-18.8779 -14.1517,-28.3034"
         id="path935"
         inkscape:connector-curvature="0"
         style="fill:none;stroke:#000000" />
      <path
         style="fill:#000000;stroke:#000000"
         d="m 79.237,-65.3523 -6.261,3.1305 -1.3417,-10.5095 z"
         id="polygon937" />
    </g>
  </g>
  <g
     id="graph0-6"
     class="graph"
     transform="matrix(0.31005275,0,0,0.31005275,63.841773,57.049706)">
    <title
       id="title1063">%3</title>
    <path
       style="fill:#ffffff"
       d="M -4,-184 H 139 V 4 H -4 Z"
       id="polygon1065" />
    <!-- 1 -->
    <g
       id="node1-2"
       class="node">
      <title
         id="title1067">1</title>
      <path
         style="fill:none;stroke:#000000"
         d="M 54,-18 A 27,18 0 0 1 27,0 27,18 0 0 1 0,-18 27,18 0 0 1 27,-36 27,18 0 0 1 54,-18 Z"
         id="ellipse1069" />
      <g
         aria-label="A"
         style="font-size:14px;font-family:Times, serif;text-anchor:middle;fill:#000000"
         id="text1071">
        <path
           d="m 31.825406,-14.3 v -0.266 c -0.63,-0.042 -0.77,-0.182 -1.26,-1.218 l -3.486,-7.952 h -0.28 l -2.912,6.874 c -0.896,2.044 -1.064,2.254 -1.736,2.296 v 0.266 h 2.772 v -0.266 c -0.672,0 -0.952,-0.182 -0.952,-0.574 0,-0.168 0.042,-0.364 0.112,-0.546 l 0.644,-1.638 h 3.668 l 0.574,1.344 c 0.168,0.392 0.266,0.742 0.266,0.952 0,0.126 -0.084,0.28 -0.196,0.336 -0.168,0.098 -0.28,0.126 -0.784,0.126 v 0.266 z m -3.626,-3.598 h -3.234 l 1.61,-3.85 z"
           style="font-size:14px;font-family:Times, serif;text-anchor:middle;fill:#000000"
           id="path2163" />
      </g>
    </g>
    <!-- 3 -->
    <g
       id="node3-9"
       class="node">
      <title
         id="title1074">3</title>
      <path
         style="fill:none;stroke:#000000"
         d="m 90,-162 a 27,18 0 0 1 -27,18 27,18 0 0 1 -27,-18 27,18 0 0 1 27,-18 27,18 0 0 1 27,18 z"
         id="ellipse1076" />
      <g
         aria-label="out"
         style="font-size:14px;font-family:Times, serif;text-anchor:middle;fill:#000000"
         id="text1078">
        <path
           d="m 60.638594,-161.576 c 0,-1.834 -1.288,-3.164 -3.08,-3.164 -1.82,0 -3.094,1.344 -3.094,3.276 0,1.89 1.302,3.304 3.066,3.304 1.764,0 3.108,-1.484 3.108,-3.416 z m -1.26,0.49 c 0,1.582 -0.63,2.534 -1.68,2.534 -0.546,0 -1.064,-0.336 -1.358,-0.896 -0.392,-0.728 -0.616,-1.708 -0.616,-2.702 0,-1.33 0.658,-2.198 1.652,-2.198 1.176,0 2.002,1.344 2.002,3.262 z"
           style="font-size:14px;font-family:Times, serif;text-anchor:middle;fill:#000000"
           id="path2167" />
        <path
           d="M 67.764594,-158.804 V -159 h -0.07 c -0.644,0 -0.798,-0.154 -0.798,-0.798 v -4.802 h -2.212 v 0.238 c 0.868,0.042 1.036,0.182 1.036,0.882 v 3.29 c 0,0.378 -0.07,0.588 -0.238,0.714 -0.392,0.336 -0.826,0.504 -1.26,0.504 -0.546,0 -0.994,-0.476 -0.994,-1.064 v -4.564 h -2.044 v 0.196 c 0.672,0.042 0.868,0.252 0.868,0.896 v 3.528 c 0,1.106 0.672,1.82 1.694,1.82 0.518,0 1.064,-0.224 1.442,-0.602 l 0.602,-0.602 v 1.162 l 0.056,0.028 c 0.7,-0.28 1.204,-0.434 1.918,-0.63 z"
           style="font-size:14px;font-family:Times, serif;text-anchor:middle;fill:#000000"
           id="path2169" />
        <path
           d="m 71.964594,-159.224 -0.182,-0.154 c -0.308,0.364 -0.532,0.49 -0.84,0.49 -0.518,0 -0.728,-0.364 -0.728,-1.26 v -4.004 h 1.414 v -0.448 h -1.414 v -1.624 c 0,-0.14 -0.028,-0.182 -0.098,-0.182 -0.084,0.14 -0.182,0.266 -0.28,0.392 -0.518,0.77 -0.994,1.288 -1.358,1.498 -0.154,0.098 -0.238,0.182 -0.238,0.266 0,0.042 0.014,0.07 0.056,0.098 h 0.742 v 4.214 c 0,1.176 0.42,1.778 1.232,1.778 0.7,0 1.232,-0.336 1.694,-1.064 z"
           style="font-size:14px;font-family:Times, serif;text-anchor:middle;fill:#000000"
           id="path2171" />
      </g>
    </g>
    <!-- 1&#45;&gt;3 -->
    <g
       id="edge1-1"
       class="edge">
      <title
         id="title1081">1-&gt;3</title>
      <path
         style="fill:none;stroke:#000000"
         inkscape:connector-curvature="0"
         d="M 23.9883,-36.0363 C 21.5895,-54.5334 19.7101,-83.9232 27,-108 c 3.2661,-10.7873 9.4764,-21.3892 15.8313,-30.3037"
         id="path1083" />
      <path
         style="fill:#000000;stroke:#000000"
         d="m 40.0487,-140.4268 8.8284,-5.8576 -3.2486,10.0845 z"
         id="polygon1085" />
    </g>
    <!-- 4 -->
    <g
       id="node4"
       class="node">
      <title
         id="title1088">4</title>
      <path
         style="fill:none;stroke:#000000"
         d="m 90,-90 a 27,18 0 0 1 -27,18 27,18 0 0 1 -27,-18 27,18 0 0 1 27,-18 27,18 0 0 1 27,18 z"
         id="ellipse1090" />
      <g
         aria-label="H"
         style="font-size:14px;font-family:Times, serif;text-anchor:middle;fill:#000000"
         id="text1092">
        <path
           d="m 67.769406,-86.300003 v -0.266 c -1.05,-0.084 -1.232,-0.266 -1.232,-1.26 v -6.216 c 0,-1.008 0.154,-1.162 1.232,-1.26 v -0.266 h -3.892 v 0.266 c 1.078,0.098 1.232,0.252 1.232,1.26 v 2.716 h -4.242 v -2.716 c 0,-1.008 0.154,-1.162 1.232,-1.26 v -0.266 h -3.892 v 0.266 c 1.078,0.098 1.232,0.252 1.232,1.26 v 6.062 c 0,1.176 -0.14,1.344 -1.232,1.414 v 0.266 h 3.892 v -0.266 c -1.05,-0.084 -1.232,-0.266 -1.232,-1.26 v -2.884 h 4.242 v 2.73 c 0,1.176 -0.14,1.344 -1.232,1.414 v 0.266 z"
           style="font-size:14px;font-family:Times, serif;text-anchor:middle;fill:#000000"
           id="path2176" />
      </g>
    </g>
    <!-- 1&#45;&gt;4 -->
    <g
       id="edge3"
       class="edge">
      <title
         id="title1095">1-&gt;4</title>
      <path
         style="fill:none;stroke:#000000"
         inkscape:connector-curvature="0"
         d="m 35.7146,-35.4292 c 4.2451,-8.4901 9.439,-18.8779 14.1517,-28.3034"
         id="path1097" />
      <path
         style="fill:#000000;stroke:#000000"
         d="m 46.763,-65.3523 7.6027,-7.379 -1.3417,10.5095 z"
         id="polygon1099" />
    </g>
    <!-- 2 -->
    <g
       id="node2-2"
       class="node">
      <title
         id="title1102">2</title>
      <path
         style="fill:none;stroke:#000000"
         d="m 135,-18 a 27,18 0 0 1 -27,18 27,18 0 0 1 -27,-18 27,18 0 0 1 27,-18 27,18 0 0 1 27,18 z"
         id="ellipse1104" />
      <g
         aria-label="B"
         style="font-size:14px;font-family:Times, serif;text-anchor:middle;fill:#000000"
         id="text1106">
        <path
           d="m 111.62622,-16.82 c 0,-0.616 -0.252,-1.176 -0.686,-1.582 -0.42,-0.378 -0.798,-0.546 -1.708,-0.77 0.728,-0.182 1.022,-0.322 1.358,-0.616 0.35,-0.308 0.56,-0.826 0.56,-1.4 0,-1.568 -1.246,-2.38 -3.668,-2.38 h -3.92 v 0.266 c 1.176,0.07 1.344,0.224 1.344,1.26 v 6.216 c 0,1.036 -0.182,1.218 -1.344,1.26 v 0.266 h 4.676 c 1.092,0 2.086,-0.294 2.604,-0.77 0.504,-0.448 0.784,-1.078 0.784,-1.75 z m -1.61,0.014 c 0,0.756 -0.294,1.302 -0.854,1.624 -0.448,0.252 -1.022,0.364 -1.946,0.364 -0.686,0 -0.882,-0.126 -0.882,-0.574 v -3.472 c 1.358,0 2.002,0.07 2.506,0.28 0.798,0.336 1.176,0.896 1.176,1.778 z m -0.294,-4.326 c 0,1.092 -0.742,1.708 -2.058,1.708 h -1.33 v -3.206 c 0,-0.294 0.098,-0.42 0.308,-0.42 h 0.616 c 1.61,0 2.464,0.672 2.464,1.918 z"
           style="font-size:14px;font-family:Times, serif;text-anchor:middle;fill:#000000"
           id="path2181" />
      </g>
    </g>
    <!-- 2&#45;&gt;3 -->
    <g
       id="edge2-7"
       class="edge">
      <title
         id="title1109">2-&gt;3</title>
      <path
         style="fill:none;stroke:#000000"
         inkscape:connector-curvature="0"
         d="M 108.7226,-36.1499 C 108.885,-54.7374 107.5225,-84.1981 99,-108 c -3.7602,-10.5018 -9.996,-20.9569 -16.2303,-29.8308"
         id="path1111" />
      <path
         style="fill:#000000;stroke:#000000"
         d="m 79.7685,-136.0023 -3.1409,-10.1186 8.7654,5.9514 z"
         id="polygon1113" />
    </g>
    <!-- 2&#45;&gt;4 -->
    <g
       id="edge4"
       class="edge">
      <title
         id="title1116">2-&gt;4</title>
      <path
         style="fill:none;stroke:#000000"
         inkscape:connector-curvature="0"
         d="M 97.563,-34.6992 C 92.0765,-43.4776 85.2314,-54.4297 79.0837,-64.2661"
         id="path1118" />
      <path
         style="fill:#000000;stroke:#000000"
         d="m 76.0249,-62.5564 -2.332,-10.335 8.268,6.625 z"
         id="polygon1120" />
    </g>
    <!-- 4&#45;&gt;3 -->
    <g
       id="edge5"
       class="edge">
      <title
         id="title1123">4-&gt;3</title>
      <path
         style="fill:none;stroke:#000000"
         inkscape:connector-curvature="0"
         d="m 63,-108.1686 c 0,-7.7004 0,-16.8571 0,-25.4148"
         id="path1125" />
      <path
         style="fill:#000000;stroke:#000000"
         d="m 59.5001,-133.5867 3.4999,-10 3.5001,9.9999 z"
         id="polygon1127" />
    </g>
  </g>
  <g
     id="g2206">
    <path
       style="color:#000000;font-style:normal;font-variant:normal;font-weight:normal;font-stretch:normal;font-size:medium;line-height:normal;font-family:sans-serif;font-variant-ligatures:normal;font-variant-position:normal;font-variant-caps:normal;font-variant-numeric:normal;font-variant-alternates:normal;font-feature-settings:normal;text-indent:0;text-align:start;text-decoration:none;text-decoration-line:none;text-decoration-style:solid;text-decoration-color:#000000;letter-spacing:normal;word-spacing:normal;text-transform:none;writing-mode:lr-tb;direction:ltr;text-orientation:mixed;dominant-baseline:auto;baseline-shift:baseline;text-anchor:start;white-space:normal;shape-padding:0;clip-rule:nonzero;display:inline;overflow:visible;visibility:visible;opacity:1;isolation:auto;mix-blend-mode:normal;color-interpolation:sRGB;color-interpolation-filters:linearRGB;solid-color:#000000;solid-opacity:1;vector-effect:none;fill:#000000;fill-opacity:1;fill-rule:nonzero;stroke:none;stroke-width:0.75118107;stroke-linecap:butt;stroke-linejoin:miter;stroke-miterlimit:4;stroke-dasharray:none;stroke-dashoffset:0;stroke-opacity:1;color-rendering:auto;image-rendering:auto;shape-rendering:auto;text-rendering:auto;enable-background:accumulate"
       d="m 44.394531,26.748047 v 0.75 h 14.861328 v -0.75 z"
       id="path1893"
       inkscape:connector-curvature="0" />
    <path
       inkscape:connector-curvature="0"
       style="fill:#000000;fill-opacity:1;fill-rule:evenodd;stroke:#000000;stroke-width:0.30047243pt;stroke-opacity:1"
       d="M 60.989437,27.122975 58.39035,28.625337 V 25.620613 Z"
       id="path2212" />
  </g>
</svg>
