<?xml version="1.0" encoding="UTF-8" standalone="no"?>
<!-- Created with Inkscape (http://www.inkscape.org/) -->

<svg
   xmlns:dc="http://purl.org/dc/elements/1.1/"
   xmlns:cc="http://creativecommons.org/ns#"
   xmlns:rdf="http://www.w3.org/1999/02/22-rdf-syntax-ns#"
   xmlns:svg="http://www.w3.org/2000/svg"
   xmlns="http://www.w3.org/2000/svg"
   xmlns:sodipodi="http://sodipodi.sourceforge.net/DTD/sodipodi-0.dtd"
   xmlns:inkscape="http://www.inkscape.org/namespaces/inkscape"
   width="60mm"
   height="170mm"
   viewBox="0 0 60 170"
   version="1.1"
   id="svg1783"
   inkscape:version="0.92.3 (2405546, 2018-03-11)"
   sodipodi:docname="module_species_analysis_icon.svg">
  <defs
     id="defs1777" />
  <sodipodi:namedview
     id="base"
     pagecolor="#ffffff"
     bordercolor="#666666"
     borderopacity="1.0"
     inkscape:pageopacity="0.0"
     inkscape:pageshadow="2"
     inkscape:zoom="0.49497475"
     inkscape:cx="-103.50566"
     inkscape:cy="372.07081"
     inkscape:document-units="mm"
     inkscape:current-layer="text3126"
     showgrid="false"
     inkscape:window-width="1916"
     inkscape:window-height="1041"
     inkscape:window-x="0"
     inkscape:window-y="18"
     inkscape:window-maximized="0" />
  <metadata
     id="metadata1780">
    <rdf:RDF>
      <cc:Work
         rdf:about="">
        <dc:format>image/svg+xml</dc:format>
        <dc:type
           rdf:resource="http://purl.org/dc/dcmitype/StillImage" />
        <dc:title />
      </cc:Work>
    </rdf:RDF>
  </metadata>
  <g
     inkscape:label="Layer 1"
     inkscape:groupmode="layer"
     id="layer1"
     transform="translate(0,-127)">
    <g
       style="fill:#000000"
       id="layer1-6"
       transform="matrix(4.5622181,0,0,4.5622181,-78.816968,-137.48238)">
      <g
         aria-label="Genome Analysis"
         transform="matrix(0.26777968,0,0,0.26777968,11.706276,35.794849)"
         id="text3126"
         style="font-style:normal;font-weight:normal;font-size:10.58329964px;line-height:1.25;font-family:sans-serif;letter-spacing:0px;word-spacing:0px;white-space:pre;shape-inside:url(#rect3128);fill:#000000;fill-opacity:1;stroke:none;stroke-width:1;stroke-miterlimit:4;stroke-dasharray:none">
        <g
           id="g3042"
           transform="translate(0,-7.442721)"
           style="fill:#ffffff">
          <g
             aria-label="Module
Species
Analysis"
             transform="matrix(0.21452636,0,0,0.21452636,12.428027,47.601985)"
             style="font-style:normal;font-weight:normal;font-size:49.33333206px;line-height:1.25;font-family:sans-serif;letter-spacing:0px;word-spacing:0px;fill:#ffffff;fill-opacity:1;stroke:none"
             id="flowRoot2566">
            <path
               d="m 57.090497,524.94596 h 11.803385 l 8.190104,19.24675 8.238281,-19.24675 h 11.779297 v 35.9642 h -8.768229 v -26.30469 l -8.286458,19.39127 h -5.877604 l -8.286458,-19.39127 v 26.30469 h -8.792318 z"
               style="font-style:normal;font-variant:normal;font-weight:bold;font-stretch:normal;font-size:49.33333206px;font-family:sans-serif;-inkscape-font-specification:'sans-serif Bold';text-align:center;text-anchor:middle;fill:#ffffff"
               id="path5711" />
            <path
               d="m 118.6849,539.44727 q -2.86654,0 -4.38412,2.07161 -1.49349,2.04753 -1.49349,5.92578 0,3.87826 1.49349,5.94987 1.51758,2.04753 4.38412,2.04753 2.81836,0 4.31185,-2.04753 1.49349,-2.07161 1.49349,-5.94987 0,-3.87825 -1.49349,-5.92578 -1.49349,-2.07161 -4.31185,-2.07161 z m 0,-6.16667 q 6.96159,0 10.86393,3.75781 3.92643,3.75781 3.92643,10.40625 0,6.64844 -3.92643,10.40625 -3.90234,3.75781 -10.86393,3.75781 -6.98568,0 -10.9362,-3.75781 -3.92643,-3.75781 -3.92643,-10.40625 0,-6.64844 3.92643,-10.40625 3.95052,-3.75781 10.9362,-3.75781 z"
               style="font-style:normal;font-variant:normal;font-weight:bold;font-stretch:normal;font-size:49.33333206px;font-family:sans-serif;-inkscape-font-specification:'sans-serif Bold';text-align:center;text-anchor:middle;fill:#ffffff"
               id="path5713" />
            <path
               d="m 158.11784,537.88151 v -14.45312 h 8.67187 v 37.48177 h -8.67187 v -3.90235 q -1.78255,2.38477 -3.92643,3.49284 -2.14388,1.10807 -4.96224,1.10807 -4.98633,0 -8.19011,-3.95052 -3.20377,-3.97461 -3.20377,-10.21354 0,-6.23893 3.20377,-10.18945 3.20378,-3.97461 8.19011,-3.97461 2.79427,0 4.93815,1.13216 2.16797,1.10807 3.95052,3.46875 z m -5.6849,17.46419 q 2.77018,0 4.2155,-2.02344 1.4694,-2.02343 1.4694,-5.8776 0,-3.85417 -1.4694,-5.8776 -1.44532,-2.02344 -4.2155,-2.02344 -2.74609,0 -4.21549,2.02344 -1.44531,2.02343 -1.44531,5.8776 0,3.85417 1.44531,5.8776 1.4694,2.02344 4.21549,2.02344 z"
               style="font-style:normal;font-variant:normal;font-weight:bold;font-stretch:normal;font-size:49.33333206px;font-family:sans-serif;-inkscape-font-specification:'sans-serif Bold';text-align:center;text-anchor:middle;fill:#ffffff"
               id="path5715" />
            <path
               d="m 174.83528,550.40755 v -16.47656 h 8.67188 v 2.69792 q 0,2.19205 -0.0241,5.51627 -0.0241,3.30013 -0.0241,4.4082 0,3.25196 0.16862,4.69727 0.16862,1.42122 0.57813,2.07161 0.52994,0.8431 1.37304,1.30079 0.86719,0.45768 1.97526,0.45768 2.69792,0 4.23959,-2.07162 1.54166,-2.07161 1.54166,-5.75716 v -13.32096 h 8.6237 v 26.97917 h -8.6237 v -3.90235 q -1.95117,2.36068 -4.14323,3.49284 -2.16796,1.10807 -4.79362,1.10807 -4.67317,0 -7.1302,-2.86653 -2.43295,-2.86654 -2.43295,-8.33464 z"
               style="font-style:normal;font-variant:normal;font-weight:bold;font-stretch:normal;font-size:49.33333206px;font-family:sans-serif;-inkscape-font-specification:'sans-serif Bold';text-align:center;text-anchor:middle;fill:#ffffff"
               id="path5717" />
            <path
               d="m 210.29361,523.42839 h 8.6237 v 37.48177 h -8.6237 z"
               style="font-style:normal;font-variant:normal;font-weight:bold;font-stretch:normal;font-size:49.33333206px;font-family:sans-serif;-inkscape-font-specification:'sans-serif Bold';text-align:center;text-anchor:middle;fill:#ffffff"
               id="path5719" />
            <path
               d="m 254.18294,547.34831 v 2.45703 h -20.1621 q 0.31315,3.03515 2.19205,4.55273 1.87891,1.51758 5.2513,1.51758 2.72201,0 5.56446,-0.79492 2.86653,-0.81901 5.8776,-2.45703 v 6.64843 q -3.05924,1.15625 -6.11849,1.73438 -3.05924,0.60221 -6.11849,0.60221 -7.32291,0 -11.39388,-3.70963 -4.04687,-3.73373 -4.04687,-10.45443 0,-6.60026 3.97461,-10.38216 3.9987,-3.7819 10.98437,-3.7819 6.35938,0 10.16537,3.83008 3.83007,3.83007 3.83007,10.23763 z m -8.86458,-2.86654 q 0,-2.45703 -1.44531,-3.95052 -1.42122,-1.51758 -3.73372,-1.51758 -2.50521,0 -4.07097,1.42123 -1.56575,1.39713 -1.95117,4.04687 z"
               style="font-style:normal;font-variant:normal;font-weight:bold;font-stretch:normal;font-size:49.33333206px;font-family:sans-serif;-inkscape-font-specification:'sans-serif Bold';text-align:center;text-anchor:middle;fill:#ffffff"
               id="path5721" />
            <path
               d="m 77.397137,587.74481 v 7.61198 q -2.96289,-1.32487 -5.781249,-1.99935 -2.81836,-0.67448 -5.323568,-0.67448 -3.324219,0 -4.914062,0.91537 -1.589844,0.91536 -1.589844,2.84245 0,1.44531 1.059896,2.26432 1.083984,0.79492 3.902343,1.37304 l 3.950521,0.79493 q 5.998047,1.20442 8.527344,3.66145 2.529296,2.45704 2.529296,6.98568 0,5.94987 -3.541015,8.86458 -3.516927,2.89063 -10.767578,2.89063 -3.420573,0 -6.865234,-0.65039 -3.444662,-0.65039 -6.889323,-1.92708 v -7.82878 q 3.444661,1.83073 6.648437,2.77018 3.227865,0.91537 6.214844,0.91537 3.035156,0 4.649088,-1.01172 1.613933,-1.01172 1.613933,-2.89063 0,-1.68619 -1.108073,-2.60156 -1.083985,-0.91536 -4.360026,-1.63802 l -3.589193,-0.79492 q -5.395833,-1.15625 -7.901041,-3.68555 -2.48112,-2.5293 -2.48112,-6.81706 0,-5.37174 3.46875,-8.26237 3.46875,-2.89062 9.972656,-2.89062 2.962891,0 6.094401,0.45768 3.13151,0.4336 6.479817,1.32487 z"
               style="font-style:normal;font-variant:normal;font-weight:bold;font-stretch:normal;font-size:49.33333206px;font-family:sans-serif;-inkscape-font-specification:'sans-serif Bold';text-align:center;text-anchor:middle;fill:#ffffff"
               id="path5723" />
            <path
               d="m 96.162112,618.6745 v 14.16406 h -8.623698 v -37.24088 h 8.623698 v 3.95052 q 1.782552,-2.36068 3.950518,-3.46875 2.16797,-1.13216 4.98633,-1.13216 4.98633,0 8.1901,3.9746 3.20378,3.95053 3.20378,10.18946 0,6.23893 -3.20378,10.21354 -3.20377,3.95052 -8.1901,3.95052 -2.81836,0 -4.98633,-1.10807 -2.167966,-1.13216 -3.950518,-3.49284 z m 5.733068,-17.46419 q -2.770178,0 -4.263667,2.04752 -1.469401,2.02344 -1.469401,5.85352 0,3.83008 1.469401,5.8776 1.493489,2.02344 4.263667,2.02344 2.77019,0 4.2155,-2.02344 1.4694,-2.02344 1.4694,-5.8776 0,-3.85417 -1.4694,-5.87761 -1.44531,-2.02343 -4.2155,-2.02343 z"
               style="font-style:normal;font-variant:normal;font-weight:bold;font-stretch:normal;font-size:49.33333206px;font-family:sans-serif;-inkscape-font-specification:'sans-serif Bold';text-align:center;text-anchor:middle;fill:#ffffff"
               id="path5725" />
            <path
               d="m 149.83138,609.01499 v 2.45703 h -20.16211 q 0.31315,3.03516 2.19206,4.55274 1.8789,1.51758 5.2513,1.51758 2.72201,0 5.56445,-0.79492 2.86654,-0.81902 5.87761,-2.45704 v 6.64844 q -3.05925,1.15625 -6.11849,1.73438 -3.05925,0.60221 -6.11849,0.60221 -7.32292,0 -11.39388,-3.70964 -4.04688,-3.73372 -4.04688,-10.45442 0,-6.60026 3.97461,-10.38216 3.9987,-3.7819 10.98438,-3.7819 6.35937,0 10.16536,3.83007 3.83008,3.83008 3.83008,10.23763 z m -8.86458,-2.86653 q 0,-2.45703 -1.44532,-3.95052 -1.42122,-1.51758 -3.73372,-1.51758 -2.50521,0 -4.07096,1.42122 -1.56576,1.39714 -1.95118,4.04688 z"
               style="font-style:normal;font-variant:normal;font-weight:bold;font-stretch:normal;font-size:49.33333206px;font-family:sans-serif;-inkscape-font-specification:'sans-serif Bold';text-align:center;text-anchor:middle;fill:#ffffff"
               id="path5727" />
            <path
               d="m 178.13542,596.44078 v 7.03385 q -1.75846,-1.20443 -3.54102,-1.78255 -1.75846,-0.57813 -3.66146,-0.57813 -3.61328,0 -5.63671,2.11979 -1.99935,2.09571 -1.99935,5.87761 0,3.7819 1.99935,5.90169 2.02343,2.0957 5.63671,2.0957 2.02344,0 3.83008,-0.60221 1.83073,-0.60221 3.3724,-1.78255 v 7.05794 q -2.02344,0.74675 -4.11914,1.10807 -2.07162,0.38542 -4.16732,0.38542 -7.29883,0 -11.41797,-3.73372 -4.11914,-3.75782 -4.11914,-10.43034 0,-6.67253 4.11914,-10.40625 4.11914,-3.75781 11.41797,-3.75781 2.11979,0 4.16732,0.38541 2.07161,0.36133 4.11914,1.10808 z"
               style="font-style:normal;font-variant:normal;font-weight:bold;font-stretch:normal;font-size:49.33333206px;font-family:sans-serif;-inkscape-font-specification:'sans-serif Bold';text-align:center;text-anchor:middle;fill:#ffffff"
               id="path5729" />
            <path
               d="m 185.62695,595.59768 h 8.62369 v 26.97916 h -8.62369 z m 0,-10.50261 h 8.62369 v 7.03386 h -8.62369 z"
               style="font-style:normal;font-variant:normal;font-weight:bold;font-stretch:normal;font-size:49.33333206px;font-family:sans-serif;-inkscape-font-specification:'sans-serif Bold';text-align:center;text-anchor:middle;fill:#ffffff"
               id="path5731" />
            <path
               d="m 229.51628,609.01499 v 2.45703 h -20.16211 q 0.31315,3.03516 2.19206,4.55274 1.8789,1.51758 5.2513,1.51758 2.722,0 5.56445,-0.79492 2.86654,-0.81902 5.87761,-2.45704 v 6.64844 q -3.05925,1.15625 -6.11849,1.73438 -3.05925,0.60221 -6.11849,0.60221 -7.32292,0 -11.39388,-3.70964 -4.04688,-3.73372 -4.04688,-10.45442 0,-6.60026 3.97461,-10.38216 3.9987,-3.7819 10.98438,-3.7819 6.35937,0 10.16536,3.83007 3.83008,3.83008 3.83008,10.23763 z m -8.86459,-2.86653 q 0,-2.45703 -1.44531,-3.95052 -1.42122,-1.51758 -3.73372,-1.51758 -2.50521,0 -4.07096,1.42122 -1.56576,1.39714 -1.95118,4.04688 z"
               style="font-style:normal;font-variant:normal;font-weight:bold;font-stretch:normal;font-size:49.33333206px;font-family:sans-serif;-inkscape-font-specification:'sans-serif Bold';text-align:center;text-anchor:middle;fill:#ffffff"
               id="path5733" />
            <path
               d="m 257.09765,596.44078 v 6.55208 q -2.77018,-1.15625 -5.34765,-1.73438 -2.57748,-0.57812 -4.86589,-0.57812 -2.45703,0 -3.66146,0.6263 -1.18033,0.60221 -1.18033,1.87891 0,1.0358 0.89127,1.58984 0.91537,0.55404 3.25195,0.81901 l 1.51758,0.2168 q 6.62435,0.8431 8.91276,2.77018 2.28841,1.92708 2.28841,6.04622 0,4.31185 -3.17968,6.47982 -3.17969,2.16797 -9.49089,2.16797 -2.67383,0 -5.54036,-0.43359 -2.84245,-0.40951 -5.85352,-1.25261 v -6.55208 q 2.57748,1.2526 5.27539,1.8789 2.72201,0.62631 5.51628,0.62631 2.52929,0 3.80599,-0.69857 1.27669,-0.69857 1.27669,-2.07162 0,-1.15625 -0.89128,-1.71028 -0.86718,-0.57813 -3.49283,-0.89128 l -1.51758,-0.19271 q -5.75716,-0.72265 -8.06966,-2.67382 -2.3125,-1.95118 -2.3125,-5.92579 0,-4.28776 2.9388,-6.35937 2.9388,-2.07161 9.00911,-2.07161 2.38477,0 5.01042,0.36132 2.62565,0.36133 5.70898,1.13217 z"
               style="font-style:normal;font-variant:normal;font-weight:bold;font-stretch:normal;font-size:49.33333206px;font-family:sans-serif;-inkscape-font-specification:'sans-serif Bold';text-align:center;text-anchor:middle;fill:#ffffff"
               id="path5735" />
            <path
               d="M 65.13607,677.69145 H 50.634768 l -2.288411,6.55208 h -9.322265 l 13.320963,-35.96419 h 11.05664 l 13.320963,35.96419 h -9.322265 z m -12.188802,-6.67253 h 9.852214 l -4.914063,-14.30859 z"
               style="font-style:normal;font-variant:normal;font-weight:bold;font-stretch:normal;font-size:49.33333206px;font-family:sans-serif;-inkscape-font-specification:'sans-serif Bold';text-align:center;text-anchor:middle;fill:#ffffff"
               id="path5737" />
            <path
               d="m 108.20638,667.81514 v 16.42839 h -8.671872 v -2.67383 -9.90039 q 0,-3.49284 -0.16862,-4.81771 -0.144531,-1.32487 -0.529948,-1.95117 -0.505859,-0.8431 -1.373047,-1.30078 -0.867187,-0.48177 -1.97526,-0.48177 -2.697917,0 -4.239584,2.0957 -1.541666,2.07162 -1.541666,5.75716 v 13.27279 h -8.623698 v -26.97917 h 8.623698 v 3.95052 q 1.951172,-2.36067 4.143229,-3.46875 2.192057,-1.13216 4.841797,-1.13216 4.673181,0 7.082031,2.86654 2.43294,2.86654 2.43294,8.33463 z"
               style="font-style:normal;font-variant:normal;font-weight:bold;font-stretch:normal;font-size:49.33333206px;font-family:sans-serif;-inkscape-font-specification:'sans-serif Bold';text-align:center;text-anchor:middle;fill:#ffffff"
               id="path5739" />
            <path
               d="m 128.3444,672.1029 q -2.69792,0 -4.07096,0.91537 -1.34896,0.91536 -1.34896,2.69792 0,1.63802 1.08398,2.57747 1.10807,0.91536 3.05925,0.91536 2.43294,0 4.09505,-1.73437 1.66211,-1.75846 1.66211,-4.38412 v -0.98763 z m 13.17643,-3.25195 v 15.39258 h -8.69596 v -3.9987 q -1.73438,2.45703 -3.90235,3.58919 -2.16797,1.10808 -5.27539,1.10808 -4.1914,0 -6.81705,-2.43295 -2.60157,-2.45703 -2.60157,-6.35937 0,-4.74544 3.25196,-6.96159 3.27604,-2.21614 10.26171,-2.21614 h 5.08269 v -0.67448 q 0,-2.04753 -1.61394,-2.98698 -1.61393,-0.96354 -5.0345,-0.96354 -2.77018,0 -5.15495,0.55403 -2.38476,0.55404 -4.43229,1.66211 v -6.57617 q 2.77018,-0.67448 5.56445,-1.01172 2.79427,-0.36133 5.58854,-0.36133 7.29883,0 10.5267,2.89063 3.25195,2.86653 3.25195,9.34635 z"
               style="font-style:normal;font-variant:normal;font-weight:bold;font-stretch:normal;font-size:49.33333206px;font-family:sans-serif;-inkscape-font-specification:'sans-serif Bold';text-align:center;text-anchor:middle;fill:#ffffff"
               id="path5741" />
            <path
               d="m 149.5905,646.76176 h 8.6237 v 37.48177 h -8.6237 z"
               style="font-style:normal;font-variant:normal;font-weight:bold;font-stretch:normal;font-size:49.33333206px;font-family:sans-serif;-inkscape-font-specification:'sans-serif Bold';text-align:center;text-anchor:middle;fill:#ffffff"
               id="path5743" />
            <path
               d="m 163.00781,657.26436 h 8.6237 l 7.25065,18.30729 6.16667,-18.30729 h 8.62369 l -11.3457,29.53255 q -1.71029,4.50456 -3.9987,6.28711 -2.26432,1.80664 -5.99804,1.80664 h -4.98633 v -5.6608 h 2.69791 q 2.19206,0 3.17969,-0.69857 1.01172,-0.69857 1.56576,-2.50521 l 0.24088,-0.74674 z"
               style="font-style:normal;font-variant:normal;font-weight:bold;font-stretch:normal;font-size:49.33333206px;font-family:sans-serif;-inkscape-font-specification:'sans-serif Bold';text-align:center;text-anchor:middle;fill:#ffffff"
               id="path5745" />
            <path
               d="m 219.8086,658.10746 v 6.55209 q -2.77019,-1.15625 -5.34766,-1.73438 -2.57747,-0.57812 -4.86589,-0.57812 -2.45703,0 -3.66145,0.6263 -1.18034,0.60221 -1.18034,1.8789 0,1.03581 0.89127,1.58985 0.91537,0.55403 3.25196,0.81901 l 1.51758,0.21679 q 6.62434,0.8431 8.91276,2.77019 2.28841,1.92708 2.28841,6.04622 0,4.31185 -3.17969,6.47982 -3.17969,2.16797 -9.49089,2.16797 -2.67382,0 -5.54036,-0.4336 -2.84245,-0.4095 -5.85352,-1.2526 v -6.55208 q 2.57748,1.2526 5.27539,1.8789 2.72201,0.6263 5.51628,0.6263 2.5293,0 3.80599,-0.69856 1.27669,-0.69857 1.27669,-2.07162 0,-1.15625 -0.89127,-1.71028 -0.86719,-0.57813 -3.49284,-0.89128 l -1.51758,-0.19271 q -5.75716,-0.72266 -8.06966,-2.67383 -2.3125,-1.95117 -2.3125,-5.92578 0,-4.28776 2.9388,-6.35937 2.9388,-2.07162 9.00912,-2.07162 2.38476,0 5.01041,0.36133 2.62565,0.36133 5.70899,1.13216 z"
               style="font-style:normal;font-variant:normal;font-weight:bold;font-stretch:normal;font-size:49.33333206px;font-family:sans-serif;-inkscape-font-specification:'sans-serif Bold';text-align:center;text-anchor:middle;fill:#ffffff"
               id="path5747" />
            <path
               d="m 228.11914,657.26436 h 8.6237 v 26.97917 h -8.6237 z m 0,-10.5026 h 8.6237 v 7.03385 h -8.6237 z"
               style="font-style:normal;font-variant:normal;font-weight:bold;font-stretch:normal;font-size:49.33333206px;font-family:sans-serif;-inkscape-font-specification:'sans-serif Bold';text-align:center;text-anchor:middle;fill:#ffffff"
               id="path5749" />
            <path
               d="m 266.15494,658.10746 v 6.55209 q -2.77018,-1.15625 -5.34766,-1.73438 -2.57747,-0.57812 -4.86588,-0.57812 -2.45703,0 -3.66146,0.6263 -1.18034,0.60221 -1.18034,1.8789 0,1.03581 0.89128,1.58985 0.91536,0.55403 3.25195,0.81901 l 1.51758,0.21679 q 6.62435,0.8431 8.91276,2.77019 2.28841,1.92708 2.28841,6.04622 0,4.31185 -3.17969,6.47982 -3.17968,2.16797 -9.49088,2.16797 -2.67383,0 -5.54037,-0.4336 -2.84244,-0.4095 -5.85351,-1.2526 v -6.55208 q 2.57747,1.2526 5.27539,1.8789 2.722,0.6263 5.51627,0.6263 2.5293,0 3.80599,-0.69856 1.2767,-0.69857 1.2767,-2.07162 0,-1.15625 -0.89128,-1.71028 -0.86719,-0.57813 -3.49284,-0.89128 l -1.51758,-0.19271 q -5.75716,-0.72266 -8.06966,-2.67383 -2.3125,-1.95117 -2.3125,-5.92578 0,-4.28776 2.9388,-6.35937 2.93881,-2.07162 9.00912,-2.07162 2.38476,0 5.01042,0.36133 2.62565,0.36133 5.70898,1.13216 z"
               style="font-style:normal;font-variant:normal;font-weight:bold;font-stretch:normal;font-size:49.33333206px;font-family:sans-serif;-inkscape-font-specification:'sans-serif Bold';text-align:center;text-anchor:middle;fill:#ffffff"
               id="path5751" />
          </g>
          <g
             transform="matrix(1.3145003,0,0,1.3145003,-79.957706,-147.83693)"
             id="g3990"
             style="fill:#ffffff">
            <g
               transform="matrix(0.1823456,0,0,0.18622529,106.95958,91.47025)"
               id="g3988"
               style="fill:#ffffff">
              <path
                 style="fill:#ffffff;stroke-width:0.26679599"
                 id="path3986"
                 d="M 4.0826241,720.34849 -18.683904,700.42761 c -1.128015,-0.98688 -2.826973,-0.93032 -3.886689,0.12912 l -13.732805,13.73281 -9.33707,-30.34568 7.771243,-6.04427 12.45245,12.45299 c 0.662722,0.66246 1.608515,0.95646 2.532163,0.78544 0.921515,-0.171 1.700027,-0.78544 2.080745,-1.64212 L 1.9626613,638.27101 c 0.6381762,-1.43617 -0.00876,-3.11778 -1.44470212,-3.75622 -1.43723166,-0.63845 -3.11831508,0.009 -3.75622508,1.4447 L -24.32211,683.39773 -35.620933,672.09864 c -1.014626,-1.01435 -2.62741,-1.11467 -3.759426,-0.23371 l -8.050312,6.26145 -10.249247,-33.31059 c -0.337763,-1.0968 -1.300632,-1.88358 -2.44252,-1.99537 -1.141621,-0.11018 -2.239222,0.47276 -2.783219,1.48312 l -14.412603,26.76633 -12.13016,-15.76925 c -0.520786,-0.67713 -1.318241,-1.08453 -2.172522,-1.10961 -0.862819,-0.0163 -1.674147,0.33563 -2.233619,0.98101 l -31.999549,36.92247 v -74.90012 c 0,-1.5717 -1.27422,-2.84592 -2.84592,-2.84592 -1.57169,0 -2.84565,1.27422 -2.84565,2.84592 v 128.06222 c 0,1.5717 1.27423,2.84592 2.84592,2.84592 H -0.63753564 c 1.571697,0 2.84591594,-1.27422 2.84591594,-2.84592 0,-1.57169 -1.27421894,-2.84592 -2.84591594,-2.84592 H -125.85411 v -19.92088 h 25.61245 c 1.047171,0 2.009239,-0.57494 2.505747,-1.49645 l 21.263397,-39.48905 10.971198,14.26239 c 0.461558,0.60029 1.144023,0.99168 1.895054,1.08772 0.750498,0.0966 1.510067,-0.11152 2.107691,-0.57654 l 11.053103,-8.59698 10.092371,32.79993 c 0.293476,0.95381 1.065584,1.68456 2.034055,1.92494 0.968737,0.24119 1.992702,-0.0435 2.698644,-0.74943 l 15.192182,-15.19244 20.7628881,18.16749 c 0.54026245,0.4725 1.2077868,0.70407 1.8731768,0.70407 0.7921179,0 1.580234,-0.32896 2.1426412,-0.97167 1.0343695,-1.18243 0.9145773,-2.98037 -0.267864,-4.01528 z M -101.94142,716.7985 h -23.91269 v -16.01338 l 34.018664,-39.25241 11.560283,15.02837 z m 39.207047,-26.76981 -10.781239,-14.01561 12.396423,-23.02185 8.883784,28.8719 z"
                 inkscape:connector-curvature="0" />
            </g>
            <g
               style="font-style:normal;font-weight:normal;font-size:40px;line-height:1.25;font-family:sans-serif;letter-spacing:0px;word-spacing:0px;white-space:pre;shape-inside:url(#rect4598);fill:#ffffff;fill-opacity:1;stroke:none"
               id="text4596" />
          </g>
        </g>
      </g>
    </g>
  </g>
</svg>
