<?xml version="1.0" encoding="UTF-8" standalone="no"?>
<svg
   xmlns:dc="http://purl.org/dc/elements/1.1/"
   xmlns:cc="http://creativecommons.org/ns#"
   xmlns:rdf="http://www.w3.org/1999/02/22-rdf-syntax-ns#"
   xmlns:svg="http://www.w3.org/2000/svg"
   xmlns="http://www.w3.org/2000/svg"
   id="svg8"
   version="1.1"
   viewBox="0 0 200 169.20599"
   height="169.20599mm"
   width="200mm">
  <defs
     id="defs2" />
  <metadata
     id="metadata5">
    <rdf:RDF>
      <cc:Work
         rdf:about="">
        <dc:format>image/svg+xml</dc:format>
        <dc:type
           rdf:resource="http://purl.org/dc/dcmitype/StillImage" />
        <dc:title></dc:title>
      </cc:Work>
    </rdf:RDF>
  </metadata>
  <g
     transform="translate(0,-127.79399)"
     style="display:inline"
     id="layer1">
    <g
       id="layer1-3"
       transform="matrix(3.1859408,0,0,3.1859408,-248.32028,-436.11806)">
      <g
         id="g4550">
        <path
           id="path4508"
           transform="scale(0.26458333)"
           d="m 360.04883,687.87305 v 18.89843 l 32.73047,18.89844 v -18.89844 z m -65.46289,18.89843 v 18.89844 l 16.36523,9.44727 V 716.2207 Z m 49.0957,9.44922 -16.36523,9.44922 v 56.69141 l 16.36523,9.44922 v -37.79493 l 16.36719,9.44922 v -18.89843 l -16.36719,-9.44922 z"
           style="fill:#e55b2d;fill-opacity:1" />
        <path
           id="path4491"
           transform="scale(0.26458333)"
           d="m 360.04883,687.87305 -49.09766,28.34765 v 18.89649 l 32.73047,-18.89649 v 18.89649 l 16.36719,-9.44727 z m 49.09765,9.44922 -16.36718,9.44921 v 18.89844 l 16.36718,-9.44922 z m -32.73242,37.79492 -16.36523,9.44922 v 18.89843 l 16.36523,-9.44922 z m -16.36523,28.34765 -16.36719,-9.44922 v 37.79493 l 16.36719,-9.44922 z"
           style="fill:#ed8e24;fill-opacity:1" />
        <path
           id="path4506"
           transform="scale(0.26458333)"
           d="m 360.04883,668.97656 -65.46289,37.79492 16.36523,9.44922 49.09766,-28.34765 32.73047,18.89843 16.36718,-9.44921 z m 0,56.69336 -16.36719,9.44727 16.36719,9.44922 16.36523,-9.44922 z"
           style="fill:#f8bf3c;fill-opacity:1" />
      </g>
    </g>
    <g
       id="flowRoot556"
       style="font-style:normal;font-weight:normal;font-size:40px;line-height:1.25;font-family:sans-serif;letter-spacing:0px;word-spacing:0px;fill:#425066;fill-opacity:1;stroke:none"
       transform="matrix(0.90635511,0,0,0.90635511,-235.25934,332.71783)"
       aria-label="Visualizer">
      <path
         id="path3005"
         style="font-style:normal;font-variant:normal;font-weight:bold;font-stretch:normal;font-family:'DejaVu Sans';-inkscape-font-specification:'DejaVu Sans Bold';fill:#425066;fill-opacity:1"
         d="m 259.56641,-69.134766 h 7.55859 l 7.73437,21.523438 7.71485,-21.523438 h 7.55859 l -10.80078,29.160157 h -8.96484 z" />
      <path
         id="path3007"
         style="font-style:normal;font-variant:normal;font-weight:bold;font-stretch:normal;font-family:'DejaVu Sans';-inkscape-font-specification:'DejaVu Sans Bold';fill:#425066;fill-opacity:1"
         d="m 292.96484,-61.849609 h 6.99219 v 21.875 h -6.99219 z m 0,-8.515625 h 6.99219 v 5.703125 h -6.99219 z" />
      <path
         id="path3009"
         style="font-style:normal;font-variant:normal;font-weight:bold;font-stretch:normal;font-family:'DejaVu Sans';-inkscape-font-specification:'DejaVu Sans Bold';fill:#425066;fill-opacity:1"
         d="m 323.80469,-61.166016 v 5.3125 q -2.2461,-0.9375 -4.33594,-1.40625 -2.08984,-0.46875 -3.94531,-0.46875 -1.99219,0 -2.96875,0.507813 -0.95703,0.488281 -0.95703,1.523437 0,0.839844 0.72265,1.289063 0.74219,0.449219 2.63672,0.664062 l 1.23047,0.175782 q 5.37109,0.683593 7.22656,2.246093 1.85547,1.5625 1.85547,4.902344 0,3.496094 -2.57812,5.253906 -2.57813,1.757813 -7.69532,1.757813 -2.16797,0 -4.49218,-0.351563 -2.30469,-0.332031 -4.7461,-1.015625 v -5.3125 q 2.08985,1.015625 4.27735,1.523438 2.20703,0.507812 4.47265,0.507812 2.05078,0 3.08594,-0.566406 1.03516,-0.566406 1.03516,-1.679687 0,-0.9375 -0.72266,-1.386719 -0.70313,-0.46875 -2.83203,-0.722656 l -1.23047,-0.15625 q -4.66797,-0.585938 -6.54297,-2.167969 -1.875,-1.582031 -1.875,-4.804688 0,-3.476562 2.38281,-5.15625 2.38282,-1.679687 7.30469,-1.679687 1.93359,0 4.0625,0.292969 2.12891,0.292968 4.62891,0.917968 z" />
      <path
         id="path3011"
         style="font-style:normal;font-variant:normal;font-weight:bold;font-stretch:normal;font-family:'DejaVu Sans';-inkscape-font-specification:'DejaVu Sans Bold';fill:#425066;fill-opacity:1"
         d="m 330.30859,-48.490234 v -13.359375 h 7.03125 v 2.1875 q 0,1.777343 -0.0195,4.472656 -0.0195,2.675781 -0.0195,3.574219 0,2.636718 0.13672,3.808593 0.13672,1.152344 0.46875,1.679688 0.42969,0.683594 1.11328,1.054687 0.70313,0.371094 1.60156,0.371094 2.1875,0 3.4375,-1.679687 1.25,-1.679688 1.25,-4.667969 v -10.800781 h 6.99219 v 21.875 h -6.99219 v -3.164063 q -1.58203,1.914063 -3.35937,2.832031 -1.75781,0.898438 -3.88672,0.898438 -3.78906,0 -5.78125,-2.324219 -1.97266,-2.324219 -1.97266,-6.757812 z" />
      <path
         id="path3013"
         style="font-style:normal;font-variant:normal;font-weight:bold;font-stretch:normal;font-family:'DejaVu Sans';-inkscape-font-specification:'DejaVu Sans Bold';fill:#425066;fill-opacity:1"
         d="m 368.86328,-49.818359 q -2.1875,0 -3.30078,0.742187 -1.09375,0.742188 -1.09375,2.1875 0,1.328125 0.87891,2.089844 0.89843,0.742187 2.48046,0.742187 1.97266,0 3.32032,-1.40625 1.34765,-1.425781 1.34765,-3.554687 v -0.800781 z m 10.68359,-2.636719 v 12.480469 h -7.05078 v -3.242188 q -1.40625,1.992188 -3.16406,2.910156 -1.75781,0.898438 -4.27734,0.898438 -3.39844,0 -5.52735,-1.972656 -2.10937,-1.992188 -2.10937,-5.15625 0,-3.847657 2.63672,-5.644532 2.65625,-1.796875 8.32031,-1.796875 h 4.12109 v -0.546875 q 0,-1.660156 -1.30859,-2.421875 -1.30859,-0.78125 -4.08203,-0.78125 -2.2461,0 -4.17969,0.449219 -1.93359,0.449219 -3.59375,1.347656 v -5.332031 q 2.24609,-0.546875 4.51172,-0.820312 2.26562,-0.292969 4.53125,-0.292969 5.91797,0 8.53516,2.34375 2.63671,2.324219 2.63671,7.578125 z" />
      <path
         id="path3015"
         style="font-style:normal;font-variant:normal;font-weight:bold;font-stretch:normal;font-family:'DejaVu Sans';-inkscape-font-specification:'DejaVu Sans Bold';fill:#425066;fill-opacity:1"
         d="m 386.08984,-70.365234 h 6.99219 v 30.390625 h -6.99219 z" />
      <path
         id="path3017"
         style="font-style:normal;font-variant:normal;font-weight:bold;font-stretch:normal;font-family:'DejaVu Sans';-inkscape-font-specification:'DejaVu Sans Bold';fill:#425066;fill-opacity:1"
         d="m 399.83984,-61.849609 h 6.99219 v 21.875 h -6.99219 z m 0,-8.515625 h 6.99219 v 5.703125 h -6.99219 z" />
      <path
         id="path3019"
         style="font-style:normal;font-variant:normal;font-weight:bold;font-stretch:normal;font-family:'DejaVu Sans';-inkscape-font-specification:'DejaVu Sans Bold';fill:#425066;fill-opacity:1"
         d="m 412.51562,-61.849609 h 19.08204 v 4.882812 l -11.52344,11.992188 h 11.52344 v 5 h -19.57032 v -4.882813 l 11.52344,-11.992187 h -11.03516 z" />
      <path
         id="path3021"
         style="font-style:normal;font-variant:normal;font-weight:bold;font-stretch:normal;font-family:'DejaVu Sans';-inkscape-font-specification:'DejaVu Sans Bold';fill:#425066;fill-opacity:1"
         d="m 458.70703,-50.970703 v 1.992187 h -16.34766 q 0.25391,2.460938 1.77735,3.691407 1.52344,1.230468 4.25781,1.230468 2.20703,0 4.51172,-0.644531 2.32422,-0.664062 4.76562,-1.992187 v 5.390625 q -2.48046,0.9375 -4.96093,1.40625 -2.48047,0.488281 -4.96094,0.488281 -5.9375,0 -9.23828,-3.007813 -3.28125,-3.027343 -3.28125,-8.476562 0,-5.351563 3.22265,-8.417969 3.24219,-3.066406 8.90625,-3.066406 5.15625,0 8.24219,3.105469 3.10547,3.105468 3.10547,8.300781 z m -7.1875,-2.324219 q 0,-1.992187 -1.17187,-3.203125 -1.15235,-1.230469 -3.02735,-1.230469 -2.03125,0 -3.30078,1.152344 -1.26953,1.132813 -1.58203,3.28125 z" />
      <path
         id="path3023"
         style="font-style:normal;font-variant:normal;font-weight:bold;font-stretch:normal;font-family:'DejaVu Sans';-inkscape-font-specification:'DejaVu Sans Bold';fill:#425066;fill-opacity:1"
         d="m 480.23047,-55.892578 q -0.91797,-0.429688 -1.83594,-0.625 -0.89844,-0.214844 -1.81641,-0.214844 -2.69531,0 -4.16015,1.738281 -1.44531,1.71875 -1.44531,4.941407 v 10.078125 h -6.99219 v -21.875 h 6.99219 v 3.59375 q 1.34765,-2.148438 3.08593,-3.125 1.75782,-0.996094 4.19922,-0.996094 0.35156,0 0.76172,0.03906 0.41016,0.01953 1.19141,0.117188 z" />
    </g>
    <g
       transform="matrix(1.0354252,0,0,1.0354252,-0.10983367,-40.521291)"
       id="g2314">
      <path
         style="fill:#f8bf3c;fill-opacity:1;stroke:none;stroke-width:0.26458332px;stroke-linecap:butt;stroke-linejoin:miter;stroke-opacity:1"
         d="m 113.32455,189.53625 13.32298,7.69268 -13.32457,7.69268 L 100,197.22886 Z"
         id="path2185" />
      <path
         style="fill:#e55b2d;fill-opacity:1;stroke:none;stroke-width:0.26458332px;stroke-linecap:butt;stroke-linejoin:miter;stroke-opacity:1"
         d="m 100,197.22886 v 69.00201 l 13.32296,7.69268 v -53.618 L 139.96922,289.30732 153.29229,297 v -76.92356 l -13.32307,-7.69268 v 61.54 L 113.32296,204.92161 100,197.22893 v 0 0"
         id="path2187" />
      <path
         style="fill:#ed8e24;fill-opacity:1;stroke:none;stroke-width:0.26458332px;stroke-linecap:butt;stroke-linejoin:miter;stroke-opacity:1"
         d="m 113.32296,273.92355 13.32457,-7.69268 v -11.46228 l -13.32457,-34.46304 z"
         id="path2189" />
      <path
         style="fill:#f29f2d;fill-opacity:1;stroke:none;stroke-width:0.26458332px;stroke-linecap:butt;stroke-linejoin:miter;stroke-opacity:1"
         d="m 113.32296,204.92161 13.32457,-7.69268 13.31277,34.47424 0.009,42.22059 z"
         id="path2191" />
      <path
         style="fill:#ed8e24;fill-opacity:1;stroke:none;stroke-width:0.26458332px;stroke-linecap:butt;stroke-linejoin:miter;stroke-opacity:1"
         d="m 153.29229,297 39.97074,-23.07645 v -15.38377 l -26.6461,15.38377 -0.002,-15.38377 13.32464,-7.69268 0.002,-15.386 -13.32465,7.69244 0.002,-15.38512 26.64451,-15.38466 v -15.38377 l -39.97074,23.07645 z"
         id="path2193" />
      <path
         style="fill:#f8bf3c;fill-opacity:1;stroke:none;stroke-width:0.26458332px;stroke-linecap:butt;stroke-linejoin:miter;stroke-opacity:1"
         d="m 139.96922,212.38376 13.32347,7.69268 39.97074,-23.07645 -13.32345,-7.69268 z"
         id="path2195" />
      <path
         style="fill:#f8bf3c;fill-opacity:1;stroke:none;stroke-width:0.26458332px;stroke-linecap:butt;stroke-linejoin:miter;stroke-opacity:1"
         d="m 166.61692,243.15354 13.32465,-7.69244 -13.32465,-7.69356 z"
         id="path2197" />
      <path
         style="fill:#f8bf3c;fill-opacity:1;stroke:none;stroke-width:0.26458332px;stroke-linecap:butt;stroke-linejoin:miter;stroke-opacity:1"
         d="m 166.61693,273.92355 26.6461,-15.38377 -13.32305,-7.69268 -13.32505,7.69268 z"
         id="path2199" />
    </g>
  </g>
</svg>
